<mxfile host="app.diagrams.net" modified="2023-11-09T11:32:03.026Z" agent="Mozilla/5.0 (Windows NT 10.0; Win64; x64; rv:109.0) Gecko/20100101 Firefox/119.0" etag="BySIndkemfgAfx8PoAm5" version="22.1.0" type="device">
  <diagram id="C5RBs43oDa-KdzZeNtuy" name="Page-1">
    <mxGraphModel dx="1434" dy="754" grid="1" gridSize="10" guides="1" tooltips="1" connect="1" arrows="1" fold="1" page="1" pageScale="1" pageWidth="1169" pageHeight="827" math="0" shadow="0">
      <root>
        <mxCell id="WIyWlLk6GJQsqaUBKTNV-0" />
        <mxCell id="WIyWlLk6GJQsqaUBKTNV-1" parent="WIyWlLk6GJQsqaUBKTNV-0" />
        <mxCell id="zkfFHV4jXpPFQw0GAbJ--0" value="Car" style="swimlane;fontStyle=1;align=center;verticalAlign=middle;childLayout=stackLayout;horizontal=1;startSize=20;horizontalStack=0;resizeParent=1;resizeLast=0;collapsible=1;marginBottom=0;rounded=0;shadow=0;strokeWidth=1;fontSize=14;" parent="WIyWlLk6GJQsqaUBKTNV-1" vertex="1">
          <mxGeometry x="10" y="160" width="310" height="490" as="geometry">
            <mxRectangle x="230" y="140" width="160" height="26" as="alternateBounds" />
          </mxGeometry>
        </mxCell>
        <mxCell id="zkfFHV4jXpPFQw0GAbJ--1" value="- make: String&#xa;- model: String&#xa;- bodyType: TypeCar&#xa;- numberWheels: int&#xa;- fuelType: TypeFuel&#xa;- gearBoxType: TypeGearBox&#xa;- bodyColor: Color&#xa;- engineCap: int&#xa;" style="text;align=left;verticalAlign=top;spacingLeft=4;spacingRight=4;overflow=hidden;rotatable=0;points=[[0,0.5],[1,0.5]];portConstraint=eastwest;fontStyle=1" parent="zkfFHV4jXpPFQw0GAbJ--0" vertex="1">
          <mxGeometry y="20" width="310" height="120" as="geometry" />
        </mxCell>
        <mxCell id="zkfFHV4jXpPFQw0GAbJ--4" value="" style="line;html=1;strokeWidth=1;align=left;verticalAlign=middle;spacingTop=-1;spacingLeft=3;spacingRight=3;rotatable=0;labelPosition=right;points=[];portConstraint=eastwest;" parent="zkfFHV4jXpPFQw0GAbJ--0" vertex="1">
          <mxGeometry y="140" width="310" height="8" as="geometry" />
        </mxCell>
        <mxCell id="zkfFHV4jXpPFQw0GAbJ--5" value="+ movement: void&#xa;+ maintenance: void&#xa;&#xa;+ trnLights: boolean&#xa; &#xa;+ getMake: (String make)&#xa;+ setMake(String make): void&#xa;+ getModel: (String model)&#xa;+ setModel(String model): void&#xa;+ getBodyType: (TypeCar bodyType)&#xa;+ setBodyType(TypeCar bodyType): viod&#xa;+ getNumberWheels: (int numberWheels)&#xa;+ setNumberWheels(int numberWheels): viod&#xa;+ getFuelType: (TypeFuel fuelType)&#xa;+ setFuelType(TypeFuel fuelType): void&#xa;+ getGearBoxType: (TypeGearBox gearBoxType)&#xa;+ setGearBoxType(TypeGearBox gearBoxType): void&#xa;+ getBodyColor: (Color bodyColor)&#xa;+ setBodyColor(Color bodyColor): void&#xa;+ getEngineCap: (int engineCap)&#xa;+ setEngineCap(int engineCap): void&#xa; &#xa;+ trnWrps: boolean&#xa;" style="text;align=left;verticalAlign=top;spacingLeft=4;spacingRight=4;overflow=hidden;rotatable=0;points=[[0,0.5],[1,0.5]];portConstraint=eastwest;fontStyle=1" parent="zkfFHV4jXpPFQw0GAbJ--0" vertex="1">
          <mxGeometry y="148" width="310" height="342" as="geometry" />
        </mxCell>
        <mxCell id="zkfFHV4jXpPFQw0GAbJ--13" value="«interface»&#xa;ICarWash" style="swimlane;fontStyle=1;align=center;verticalAlign=middle;childLayout=stackLayout;horizontal=1;startSize=40;horizontalStack=0;resizeParent=1;resizeLast=0;collapsible=1;marginBottom=0;rounded=0;shadow=0;strokeWidth=1;fontSize=14;" parent="WIyWlLk6GJQsqaUBKTNV-1" vertex="1">
          <mxGeometry x="680" y="160" width="160" height="120" as="geometry">
            <mxRectangle x="340" y="380" width="170" height="26" as="alternateBounds" />
          </mxGeometry>
        </mxCell>
        <mxCell id="zkfFHV4jXpPFQw0GAbJ--14" value="+ wipWindshield: void&#xa;+ wipHeadlights: void&#xa;+ wipMirrors: void&#xa;" style="text;align=left;verticalAlign=top;spacingLeft=4;spacingRight=4;overflow=hidden;rotatable=0;points=[[0,0.5],[1,0.5]];portConstraint=eastwest;fontStyle=1" parent="zkfFHV4jXpPFQw0GAbJ--13" vertex="1">
          <mxGeometry y="40" width="160" height="80" as="geometry" />
        </mxCell>
        <mxCell id="zkfFHV4jXpPFQw0GAbJ--17" value="Pickup" style="swimlane;fontStyle=1;align=center;verticalAlign=middle;childLayout=stackLayout;horizontal=1;startSize=20;horizontalStack=0;resizeParent=1;resizeLast=0;collapsible=1;marginBottom=0;rounded=0;shadow=0;strokeWidth=1;fontSize=14;" parent="WIyWlLk6GJQsqaUBKTNV-1" vertex="1">
          <mxGeometry x="400" y="160" width="200" height="140" as="geometry">
            <mxRectangle x="550" y="140" width="160" height="26" as="alternateBounds" />
          </mxGeometry>
        </mxCell>
        <mxCell id="zkfFHV4jXpPFQw0GAbJ--18" value="- loadCap: int&#xa;" style="text;align=left;verticalAlign=top;spacingLeft=4;spacingRight=4;overflow=hidden;rotatable=0;points=[[0,0.5],[1,0.5]];portConstraint=eastwest;fontStyle=1" parent="zkfFHV4jXpPFQw0GAbJ--17" vertex="1">
          <mxGeometry y="20" width="200" height="30" as="geometry" />
        </mxCell>
        <mxCell id="zkfFHV4jXpPFQw0GAbJ--23" value="" style="line;html=1;strokeWidth=1;align=left;verticalAlign=middle;spacingTop=-1;spacingLeft=3;spacingRight=3;rotatable=0;labelPosition=right;points=[];portConstraint=eastwest;" parent="zkfFHV4jXpPFQw0GAbJ--17" vertex="1">
          <mxGeometry y="50" width="200" height="8" as="geometry" />
        </mxCell>
        <mxCell id="zkfFHV4jXpPFQw0GAbJ--25" value="+ wipWindshield(ICarWash): void&#xa;+ wipHeadlights(ICarWash): void&#xa;+ wipMirrors(ICarWash): void&#xa;+ fuel(IFuelStation): void&#xa;&#xa;&#xa;&#xa;&#xa;" style="text;align=left;verticalAlign=top;spacingLeft=4;spacingRight=4;overflow=hidden;rotatable=0;points=[[0,0.5],[1,0.5]];portConstraint=eastwest;fontStyle=1" parent="zkfFHV4jXpPFQw0GAbJ--17" vertex="1">
          <mxGeometry y="58" width="200" height="82" as="geometry" />
        </mxCell>
        <mxCell id="Wawoy-cQcfaWRQ1uand8-2" value="«interface»&#xa;IFuelStation" style="swimlane;fontStyle=1;align=center;verticalAlign=middle;childLayout=stackLayout;horizontal=1;startSize=40;horizontalStack=0;resizeParent=1;resizeLast=0;collapsible=1;marginBottom=0;rounded=0;shadow=0;strokeWidth=1;fontSize=14;" vertex="1" parent="WIyWlLk6GJQsqaUBKTNV-1">
          <mxGeometry x="680" y="320" width="160" height="80" as="geometry">
            <mxRectangle x="340" y="380" width="170" height="26" as="alternateBounds" />
          </mxGeometry>
        </mxCell>
        <mxCell id="Wawoy-cQcfaWRQ1uand8-3" value="+ fuel: void&#xa;" style="text;align=left;verticalAlign=top;spacingLeft=4;spacingRight=4;overflow=hidden;rotatable=0;points=[[0,0.5],[1,0.5]];portConstraint=eastwest;fontStyle=1" vertex="1" parent="Wawoy-cQcfaWRQ1uand8-2">
          <mxGeometry y="40" width="160" height="30" as="geometry" />
        </mxCell>
        <mxCell id="Wawoy-cQcfaWRQ1uand8-6" value="" style="endArrow=block;endSize=16;endFill=0;html=1;rounded=0;" edge="1" parent="WIyWlLk6GJQsqaUBKTNV-1">
          <mxGeometry x="1" y="61" width="160" relative="1" as="geometry">
            <mxPoint x="400" y="240" as="sourcePoint" />
            <mxPoint x="320" y="240" as="targetPoint" />
            <mxPoint x="60" y="51" as="offset" />
          </mxGeometry>
        </mxCell>
        <mxCell id="Wawoy-cQcfaWRQ1uand8-7" value="" style="endArrow=block;dashed=1;endFill=0;endSize=12;html=1;rounded=0;exitX=1.015;exitY=0.28;exitDx=0;exitDy=0;exitPerimeter=0;" edge="1" parent="WIyWlLk6GJQsqaUBKTNV-1" source="zkfFHV4jXpPFQw0GAbJ--25">
          <mxGeometry width="160" relative="1" as="geometry">
            <mxPoint x="760" y="240" as="sourcePoint" />
            <mxPoint x="680" y="240" as="targetPoint" />
          </mxGeometry>
        </mxCell>
        <mxCell id="Wawoy-cQcfaWRQ1uand8-8" value="" style="endArrow=block;dashed=1;endFill=0;endSize=12;html=1;rounded=0;exitX=0.488;exitY=1.037;exitDx=0;exitDy=0;exitPerimeter=0;entryX=0;entryY=0.5;entryDx=0;entryDy=0;" edge="1" parent="WIyWlLk6GJQsqaUBKTNV-1" source="zkfFHV4jXpPFQw0GAbJ--25" target="Wawoy-cQcfaWRQ1uand8-2">
          <mxGeometry width="160" relative="1" as="geometry">
            <mxPoint x="560" y="359.67" as="sourcePoint" />
            <mxPoint x="640" y="359.67" as="targetPoint" />
          </mxGeometry>
        </mxCell>
        <mxCell id="Wawoy-cQcfaWRQ1uand8-12" value="&lt;font style=&quot;font-size: 14px;&quot;&gt;&lt;b&gt;«enumeratione»&lt;br&gt;TypeCar&lt;br&gt;&lt;/b&gt;&lt;/font&gt;" style="swimlane;fontStyle=0;childLayout=stackLayout;horizontal=1;startSize=40;fillColor=none;horizontalStack=0;resizeParent=1;resizeParentMax=0;resizeLast=0;collapsible=1;marginBottom=0;whiteSpace=wrap;html=1;" vertex="1" parent="WIyWlLk6GJQsqaUBKTNV-1">
          <mxGeometry x="400" y="400" width="140" height="84" as="geometry" />
        </mxCell>
        <mxCell id="Wawoy-cQcfaWRQ1uand8-13" value="&lt;b&gt;SEDAN,&lt;br&gt;PICKUP&lt;/b&gt;" style="text;strokeColor=none;fillColor=none;align=left;verticalAlign=top;spacingLeft=4;spacingRight=4;overflow=hidden;rotatable=0;points=[[0,0.5],[1,0.5]];portConstraint=eastwest;whiteSpace=wrap;html=1;" vertex="1" parent="Wawoy-cQcfaWRQ1uand8-12">
          <mxGeometry y="40" width="140" height="44" as="geometry" />
        </mxCell>
        <mxCell id="Wawoy-cQcfaWRQ1uand8-16" value="" style="endArrow=none;html=1;edgeStyle=orthogonalEdgeStyle;rounded=0;" edge="1" parent="WIyWlLk6GJQsqaUBKTNV-1">
          <mxGeometry relative="1" as="geometry">
            <mxPoint x="320" y="441.5" as="sourcePoint" />
            <mxPoint x="400" y="441.5" as="targetPoint" />
            <Array as="points">
              <mxPoint x="350" y="441.5" />
              <mxPoint x="350" y="441.5" />
            </Array>
          </mxGeometry>
        </mxCell>
        <mxCell id="Wawoy-cQcfaWRQ1uand8-20" value="&lt;font style=&quot;font-size: 14px;&quot;&gt;&lt;b&gt;«enumeratione»&lt;br&gt;TypeFuel&lt;br&gt;&lt;/b&gt;&lt;/font&gt;" style="swimlane;fontStyle=0;childLayout=stackLayout;horizontal=1;startSize=40;fillColor=none;horizontalStack=0;resizeParent=1;resizeParentMax=0;resizeLast=0;collapsible=1;marginBottom=0;whiteSpace=wrap;html=1;" vertex="1" parent="WIyWlLk6GJQsqaUBKTNV-1">
          <mxGeometry x="400" y="520" width="140" height="84" as="geometry" />
        </mxCell>
        <mxCell id="Wawoy-cQcfaWRQ1uand8-21" value="&lt;b&gt;GAS,&lt;br&gt;DIS&lt;/b&gt;" style="text;strokeColor=none;fillColor=none;align=left;verticalAlign=top;spacingLeft=4;spacingRight=4;overflow=hidden;rotatable=0;points=[[0,0.5],[1,0.5]];portConstraint=eastwest;whiteSpace=wrap;html=1;" vertex="1" parent="Wawoy-cQcfaWRQ1uand8-20">
          <mxGeometry y="40" width="140" height="44" as="geometry" />
        </mxCell>
        <mxCell id="Wawoy-cQcfaWRQ1uand8-22" value="" style="endArrow=none;html=1;edgeStyle=orthogonalEdgeStyle;rounded=0;" edge="1" parent="WIyWlLk6GJQsqaUBKTNV-1">
          <mxGeometry relative="1" as="geometry">
            <mxPoint x="320" y="561.5" as="sourcePoint" />
            <mxPoint x="400" y="561.5" as="targetPoint" />
            <Array as="points">
              <mxPoint x="350" y="561.5" />
              <mxPoint x="350" y="561.5" />
            </Array>
          </mxGeometry>
        </mxCell>
        <mxCell id="Wawoy-cQcfaWRQ1uand8-23" value="&lt;font style=&quot;font-size: 14px;&quot;&gt;&lt;b&gt;«enumeratione»&lt;br&gt;TypeGearBox&lt;br&gt;&lt;/b&gt;&lt;/font&gt;" style="swimlane;fontStyle=0;childLayout=stackLayout;horizontal=1;startSize=40;fillColor=none;horizontalStack=0;resizeParent=1;resizeParentMax=0;resizeLast=0;collapsible=1;marginBottom=0;whiteSpace=wrap;html=1;" vertex="1" parent="WIyWlLk6GJQsqaUBKTNV-1">
          <mxGeometry x="400" y="640" width="140" height="100" as="geometry" />
        </mxCell>
        <mxCell id="Wawoy-cQcfaWRQ1uand8-24" value="&lt;b&gt;MAN,&lt;br&gt;AUTO,&lt;br&gt;CVT&lt;/b&gt;" style="text;strokeColor=none;fillColor=none;align=left;verticalAlign=top;spacingLeft=4;spacingRight=4;overflow=hidden;rotatable=0;points=[[0,0.5],[1,0.5]];portConstraint=eastwest;whiteSpace=wrap;html=1;" vertex="1" parent="Wawoy-cQcfaWRQ1uand8-23">
          <mxGeometry y="40" width="140" height="60" as="geometry" />
        </mxCell>
        <mxCell id="Wawoy-cQcfaWRQ1uand8-26" value="" style="endArrow=none;html=1;edgeStyle=orthogonalEdgeStyle;rounded=0;exitX=0.997;exitY=0.855;exitDx=0;exitDy=0;exitPerimeter=0;" edge="1" parent="WIyWlLk6GJQsqaUBKTNV-1" source="zkfFHV4jXpPFQw0GAbJ--5">
          <mxGeometry relative="1" as="geometry">
            <mxPoint x="340" y="600" as="sourcePoint" />
            <mxPoint x="400" y="680" as="targetPoint" />
            <Array as="points">
              <mxPoint x="350" y="600" />
              <mxPoint x="350" y="680" />
            </Array>
          </mxGeometry>
        </mxCell>
        <mxCell id="Wawoy-cQcfaWRQ1uand8-27" value="&lt;b&gt;&lt;font style=&quot;font-size: 16px;&quot;&gt;По разработанному коду нарисовать UML диаграмму. Сдаем в формате JPG.&lt;/font&gt;&lt;/b&gt;" style="text;html=1;strokeColor=none;fillColor=none;align=center;verticalAlign=middle;whiteSpace=wrap;rounded=0;" vertex="1" parent="WIyWlLk6GJQsqaUBKTNV-1">
          <mxGeometry x="80" y="80" width="950" height="30" as="geometry" />
        </mxCell>
      </root>
    </mxGraphModel>
  </diagram>
</mxfile>
